# xmcd
#
# Track frame offsets: 
#        150
#        24319
#        37696
#        61622
#        77034
#        100459
#        120092
#        145579
#        171148
#        193489
#
# Disc length: 2840 seconds
#
# Revision: 0
# Processed by: cddbd v1.5.2PL0 Copyright (c) Steve Scherf et al.
# Submitted via: ExactAudioCopy v0.99pb4
#
DISCID=720b160a
DTITLE=Geoff Elvee - Big Wheels
DYEAR=2008
DGENRE=Country
TTITLE0=Big Wheels
TTITLE1=Hard Road To Heaven
TTITLE2=Blood In The Sand
TTITLE3=Hello Minnesota
TTITLE4=He's Home From Iraq (But He's Not Back Yet)
TTITLE5=The Country's Callin' Me
TTITLE6=Old School
TTITLE7=The Outlaw
TTITLE8=That Ain't Me
TTITLE9=What More Could A Guy Ask For
EXTD=
EXTT0=
EXTT1=
EXTT2=
EXTT3=
EXTT4=
EXTT5=
EXTT6=
EXTT7=
EXTT8=
EXTT9=
PLAYORDER=
